<svg xmlns="http://www.w3.org/2000/svg" xmlns:xlink="http://www.w3.org/1999/xlink" width="52" height="36" xmlns:v="https://vecta.io/nano"><use xlink:href="#A" fill="#828282"/><defs><path id="A" fill-rule="evenodd" d="M46 4H6a2 2 0 0 0-2 2v24a2 2 0 0 0 2 2h40a2 2 0 0 0 2-2V6a2 2 0 0 0-2-2zM6 0a6 6 0 0 0-6 6v24a6 6 0 0 0 6 6h40a6 6 0 0 0 6-6V6a6 6 0 0 0-6-6H6zm26 26a8 8 0 1 0 0-16 8 8 0 0 0-8 8 8.01 8.01 0 0 0 .252 2H30v4h-3.29A7.97 7.97 0 0 0 32 26zm-10.394-2c2.075 3.587 5.953 6 10.395 6 6.627 0 12-5.373 12-12S38.627 6 32 6s-12 5.373-12 12c0 .68.057 1.35.166 2H12v4h9.606z"/></defs></svg>